<svg viewBox="0 0 800 600" xmlns="http://www.w3.org/2000/svg">
      <defs>
        <linearGradient id="bgGradient" x1="0%" y1="0%" x2="100%" y2="100%">
          <stop offset="0%" style="stop-color:#6366f1;stop-opacity:0.1" />
          <stop offset="100%" style="stop-color:#4f46e5;stop-opacity:0.05" />
        </linearGradient>
        <filter id="shadow">
          <feDropShadow dx="0" dy="2" stdDeviation="3" flood-opacity="0.1"/>
        </filter>
      </defs>
    <rect width="800" height="600" fill="#f8fafc" /><rect width="800" height="600" fill="url(#bgGradient)" />
        <text x="400" y="60" 
              text-anchor="middle" 
              font-size="28" 
              font-weight="bold" 
              fill="#1f2937">
          Full-Stack Development Learning Path
        </text>
      <g transform="translate(40, 100)">
        <rect x="0" y="0" 
              width="700" 
              height="65" 
              rx="8" 
              fill="white" 
              filter="url(#shadow)" />
      
        <circle cx="30" 
                cy="32.5" 
                r="20" 
                fill="#6366f1" />
        <path d="M12 17.27L18.18 21l-1.64-7.03L22 9.24l-7.19-.61L12 2 9.19 8.63 2 9.24l5.46 4.73L5.82 21z" 
              fill="white" 
              transform="translate(20, 22.5) scale(1.6666666666666667)" />
      
        <text x="65" 
              y="37.5" 
              font-size="16" 
              fill="#1f2937">
          Master JavaScript fundamentals and ES...
        </text>
      </g><g transform="translate(40, 180)">
        <rect x="0" y="0" 
              width="700" 
              height="65" 
              rx="8" 
              fill="white" 
              filter="url(#shadow)" />
      
        <circle cx="30" 
                cy="32.5" 
                r="20" 
                fill="#6366f1" />
        <path d="M12 17.27L18.18 21l-1.64-7.03L22 9.24l-7.19-.61L12 2 9.19 8.63 2 9.24l5.46 4.73L5.82 21z" 
              fill="white" 
              transform="translate(20, 22.5) scale(1.6666666666666667)" />
      
        <text x="65" 
              y="37.5" 
              font-size="16" 
              fill="#1f2937">
          Build responsive web applications wit...
        </text>
      </g><g transform="translate(40, 260)">
        <rect x="0" y="0" 
              width="700" 
              height="65" 
              rx="8" 
              fill="white" 
              filter="url(#shadow)" />
      
        <circle cx="30" 
                cy="32.5" 
                r="20" 
                fill="#6366f1" />
        <path d="M12 2L2 12h3v8h14v-8h3L12 2zm0 3.5L18.5 12H16v6H8v-6H5.5L12 5.5z" 
              fill="white" 
              transform="translate(20, 22.5) scale(1.6666666666666667)" />
      
        <text x="65" 
              y="37.5" 
              font-size="16" 
              fill="#1f2937">
          Implement RESTful APIs with Node.js a...
        </text>
      </g><g transform="translate(40, 340)">
        <rect x="0" y="0" 
              width="700" 
              height="65" 
              rx="8" 
              fill="white" 
              filter="url(#shadow)" />
      
        <circle cx="30" 
                cy="32.5" 
                r="20" 
                fill="#6366f1" />
        <path d="M19.35 10.04C18.67 6.59 15.64 4 12 4 9.11 4 6.6 5.64 5.35 8.04 2.34 8.36 0 10.91 0 14c0 3.31 2.69 6 6 6h13c2.76 0 5-2.24 5-5 0-2.64-2.05-4.78-4.65-4.96z" 
              fill="white" 
              transform="translate(20, 22.5) scale(1.6666666666666667)" />
      
        <text x="65" 
              y="37.5" 
              font-size="16" 
              fill="#1f2937">
          Deploy applications to cloud platforms
        </text>
      </g><g transform="translate(40, 420)">
        <rect x="0" y="0" 
              width="700" 
              height="65" 
              rx="8" 
              fill="white" 
              filter="url(#shadow)" />
      
        <circle cx="30" 
                cy="32.5" 
                r="20" 
                fill="#6366f1" />
        <path d="M9.4 16.6L4.8 12l4.6-4.6L8 6l-6 6 6 6 1.4-1.4zm5.2 0l4.6-4.6-4.6-4.6L16 6l6 6-6 6-1.4-1.4z" 
              fill="white" 
              transform="translate(20, 22.5) scale(1.6666666666666667)" />
      
        <text x="65" 
              y="37.5" 
              font-size="16" 
              fill="#1f2937">
          Apply best practices for code quality...
        </text>
      </g></svg>